<?xml version="1.0" encoding="iso-8859-1"?>
<!-- Uploaded to: SVG Repo, www.svgrepo.com, Generator: SVG Repo Mixer Tools -->
<svg height="800px" width="800px" version="1.1" id="Layer_1" xmlns="http://www.w3.org/2000/svg" xmlns:xlink="http://www.w3.org/1999/xlink" 
	 viewBox="0 0 512 512" xml:space="preserve">
<circle style="fill:#45CCFF;" cx="256" cy="256" r="245.333"/>
<g>
	<path style="fill:#231F20;" d="M437.02,74.98C388.667,26.628,324.38,0,256,0S123.333,26.628,74.98,74.98S0,187.62,0,256
		s26.628,132.667,74.98,181.02S187.62,512,256,512s132.667-26.628,181.02-74.98S512,324.38,512,256S485.372,123.333,437.02,74.98z
		 M93.472,266.282c1.212,48.927,11.05,95.47,28.363,135.075c-12.677,4.384-25.02,9.402-36.959,15.039
		c-37.11-39.569-60.691-91.959-63.29-149.729h69.081C91.639,266.667,92.576,266.525,93.472,266.282z M131.185,420.699
		c2.629,4.937,5.383,9.742,8.268,14.396c9.556,15.424,20.151,28.674,31.542,39.633c-25.729-10.034-49.262-24.483-69.673-42.411
		C111.021,428.017,120.991,424.145,131.185,420.699z M157.587,423.859c-1.921-3.1-3.775-6.279-5.575-9.519
		c33.118-9.045,68.22-13.721,103.988-13.721c35.789,0,70.911,4.681,104.045,13.735C333.53,462.374,295.97,490.667,256,490.667
		C219.229,490.667,184.279,466.941,157.587,423.859z M380.819,420.701c10.192,3.445,20.161,7.316,29.858,11.616
		c-20.448,17.961-44.032,32.43-69.817,42.466C355.884,460.413,369.397,442.199,380.819,420.701z M427.125,416.395
		c-11.945-5.639-24.294-10.66-36.978-15.045c3.733-8.571,7.168-17.554,10.261-26.938c1.844-5.595-1.197-11.626-6.791-13.47
		c-5.596-1.845-11.626,1.196-13.47,6.79c-3.14,9.524-6.637,18.595-10.451,27.178c-36.148-10.293-74.563-15.625-113.696-15.625
		c-39.131,0-77.543,5.331-113.69,15.622c-17.949-40.082-27.644-88.233-27.644-138.908s9.695-98.826,27.644-138.908
		c36.146,10.291,74.559,15.622,113.69,15.622s77.543-5.331,113.69-15.622c17.949,40.082,27.644,88.233,27.644,138.908
		c0,5.891,4.775,10.667,10.667,10.667c0.452,0,0.896-0.037,1.333-0.092c0.437,0.054,0.881,0.092,1.333,0.092h79.747
		C487.815,324.436,464.235,376.827,427.125,416.395z M131.185,91.301c-10.194-3.446-20.164-7.318-29.862-11.618
		c20.404-17.922,43.93-32.368,69.649-42.401c-11.383,10.956-21.968,24.208-31.519,39.623
		C136.569,81.559,133.814,86.364,131.185,91.301z M157.587,88.141C184.279,45.059,219.229,21.333,256,21.333
		c36.771,0,71.721,23.726,98.413,66.807c1.921,3.1,3.775,6.279,5.575,9.519C326.87,106.705,291.769,111.38,256,111.38
		s-70.87-4.675-103.988-13.721C153.812,94.42,155.666,91.242,157.587,88.141z M372.547,76.906
		c-9.551-15.415-20.135-28.668-31.519-39.623c25.719,10.033,49.245,24.48,69.649,42.401c-9.698,4.3-19.668,8.172-29.862,11.618
		C378.186,86.364,375.431,81.559,372.547,76.906z M490.414,245.333H418.52c-1.254-48.786-11.087-95.188-28.353-134.689
		c12.677-4.384,25.02-9.402,36.959-15.039C464.235,135.173,487.815,187.564,490.414,245.333z M84.875,95.605
		c11.939,5.636,24.282,10.655,36.959,15.039c-17.312,39.605-27.15,86.148-28.363,135.075c-0.895-0.244-1.831-0.386-2.804-0.386
		H21.586C24.185,187.564,47.765,135.173,84.875,95.605z"/>
	<path style="fill:#231F20;" d="M372.32,247.892l-52.37-44.774c-4.478-3.828-11.212-3.301-15.039,1.175
		c-3.828,4.478-3.302,11.211,1.175,15.039L348.974,256l-42.887,36.667c-4.478,3.828-5.004,10.561-1.175,15.039
		c2.11,2.467,5.102,3.735,8.112,3.734c2.451,0,4.916-0.841,6.927-2.559l52.37-44.774c2.37-2.027,3.734-4.989,3.734-8.108
		C376.054,252.88,374.69,249.919,372.32,247.892z"/>
	<path style="fill:#231F20;" d="M207.089,204.294c-3.828-4.478-10.561-5.006-15.039-1.175l-52.37,44.774
		c-2.37,2.027-3.734,4.989-3.734,8.108s1.364,6.081,3.734,8.108l52.37,44.774c2.011,1.718,4.475,2.559,6.927,2.559
		c3.01,0,6.003-1.267,8.112-3.734c3.828-4.478,3.302-11.211-1.175-15.039L163.026,256l42.887-36.667
		C210.391,215.505,210.917,208.772,207.089,204.294z"/>
	<path style="fill:#231F20;" d="M278.987,185.385c-5.603-1.825-11.621,1.239-13.444,6.842l-39.37,120.946
		c-1.823,5.601,1.239,11.621,6.842,13.444c1.097,0.357,2.209,0.527,3.303,0.527c4.494,0,8.674-2.863,10.141-7.368l39.37-120.946
		C287.651,193.227,284.588,187.207,278.987,185.385z"/>
	<path style="fill:#231F20;" d="M403.793,304.446c-5.849-0.724-11.173,3.428-11.895,9.276c-0.035,0.286-0.074,0.571-0.114,0.852
		c-0.842,5.83,3.203,11.239,9.034,12.081c0.517,0.075,1.03,0.111,1.537,0.111c5.216,0,9.777-3.83,10.544-9.145
		c0.062-0.425,0.118-0.851,0.172-1.281C413.793,310.496,409.639,305.17,403.793,304.446z"/>
</g>
</svg>